<?xml version="1.0" encoding="utf-8"?>
<!-- Generator: Adobe Illustrator 16.0.0, SVG Export Plug-In . SVG Version: 6.00 Build 0)  -->
<!DOCTYPE svg PUBLIC "-//W3C//DTD SVG 1.1//EN" "http://www.w3.org/Graphics/SVG/1.1/DTD/svg11.dtd">
<svg version="1.1" id="Layer_1" xmlns="http://www.w3.org/2000/svg" xmlns:xlink="http://www.w3.org/1999/xlink" x="0px" y="0px"
	 width="450px" height="78.075px" viewBox="0 0 450 78.075" enable-background="new 0 0 450 78.075" xml:space="preserve">
<g>
	<g>
		<path fill="#454545" d="M29.057,5.183c16.149,0,27.364,11.664,27.364,27.814S45.206,60.81,29.057,60.81
			c-16.15,0-27.365-11.664-27.365-27.813S12.906,5.183,29.057,5.183z M29.057,56.324c13.832,0,22.43-10.168,22.43-23.328
			S42.889,9.669,29.057,9.669S6.626,19.837,6.626,32.997S15.225,56.324,29.057,56.324z"/>
		<path fill="#454545" d="M61.875,24.921h4.485v6.056h0.15c2.766-4.785,8.673-6.953,13.832-6.953
			c10.616,0,18.168,7.626,18.168,18.168c0,10.542-7.552,18.169-18.168,18.169c-5.159,0-11.066-2.168-13.832-6.954h-0.15v23.103
			h-4.485V24.921z M80.343,56.324c8.448,0,13.683-6.355,13.683-14.131s-5.234-14.131-13.683-14.131
			c-8.15,0-14.431,6.355-14.431,14.131S72.192,56.324,80.343,56.324z"/>
		<path fill="#454545" d="M122.059,28.959h-9.869v22.505c0,3.065,1.794,4.86,4.785,4.86c1.72,0,3.514-0.523,5.084-1.196l0.374,4.038
			c-1.645,0.598-4.112,1.196-5.832,1.196c-6.43,0-8.897-3.963-8.897-8.897V28.959h-7.477v-4.038h7.477v-9.944h4.486v9.944h9.869
			V28.959z"/>
		<path fill="#454545" d="M153.534,44.959c0,6.729,0.149,10.542,0.673,14.505h-4.188c-0.299-1.72-0.448-3.664-0.448-5.607h-0.149
			c-2.542,4.411-6.28,6.505-12.112,6.505c-5.907,0-12.188-2.916-12.188-10.244c0-10.542,12.337-11.589,19.141-11.589h5.234v-2.093
			c0-5.981-4.188-8.374-9.721-8.374c-4.037,0-7.477,1.271-10.542,3.888l-2.617-3.065c3.29-3.14,8.674-4.86,13.159-4.86
			c8.374,0,13.758,3.738,13.758,12.486V44.959z M144.562,42.118c-7.477,0-14.953,1.869-14.953,7.776c0,4.262,4.112,6.43,7.851,6.43
			c9.57,0,12.038-6.131,12.038-11.888v-2.318H144.562z"/>
		<path fill="#454545" d="M163.401,6.529h15.252c7.478,0,17.048,2.916,17.048,13.981c0,9.57-7.627,13.832-15.926,13.832h-11.439
			v25.122h-4.935V6.529z M168.336,29.856h11.215c5.607,0,11.215-2.393,11.215-9.346c0-6.804-5.831-9.496-11.514-9.496h-10.916
			V29.856z"/>
		<path fill="#454545" d="M202.427,2.94h4.485v56.524h-4.485V2.94z"/>
		<path fill="#454545" d="M243.099,44.959c0,6.729,0.149,10.542,0.673,14.505h-4.188c-0.299-1.72-0.448-3.664-0.448-5.607h-0.149
			c-2.542,4.411-6.28,6.505-12.112,6.505c-5.907,0-12.188-2.916-12.188-10.244c0-10.542,12.337-11.589,19.141-11.589h5.234v-2.093
			c0-5.981-4.188-8.374-9.721-8.374c-4.037,0-7.477,1.271-10.542,3.888l-2.617-3.065c3.29-3.14,8.674-4.86,13.159-4.86
			c8.374,0,13.758,3.738,13.758,12.486V44.959z M234.126,42.118c-7.477,0-14.953,1.869-14.953,7.776c0,4.262,4.112,6.43,7.851,6.43
			c9.57,0,12.038-6.131,12.038-11.888v-2.318H234.126z"/>
		<path fill="#454545" d="M251.694,34.641c0-2.542-0.374-7.925-0.374-9.72h4.486c0.074,2.542,0.149,5.383,0.299,6.056h0.225
			c1.794-3.813,6.206-6.953,11.813-6.953c10.767,0,13.159,7.327,13.159,14.879v20.561h-4.486V39.127
			c0-5.607-1.57-11.065-8.673-11.065c-6.654,0-11.963,4.635-11.963,14.131v17.271h-4.486V34.641z"/>
		<path fill="#454545" d="M289.897,34.641c0-2.542-0.374-7.925-0.374-9.72h4.486c0.074,2.542,0.149,5.383,0.299,6.056h0.225
			c1.794-3.813,6.206-6.953,11.813-6.953c10.767,0,13.159,7.327,13.159,14.879v20.561h-4.486V39.127
			c0-5.607-1.57-11.065-8.673-11.065c-6.654,0-11.963,4.635-11.963,14.131v17.271h-4.486V34.641z"/>
		<path fill="#454545" d="M358.605,52.959c-3.514,5.234-8.822,7.402-14.953,7.402c-10.542,0-17.496-7.552-17.496-18.244
			c0-10.318,7.178-18.094,17.271-18.094c10.617,0,16.225,8.149,16.225,16.15v3.14h-29.01c0,3.738,2.617,13.01,13.085,13.01
			c4.561,0,9.346-2.393,11.589-6.131L358.605,52.959z M355.167,39.277c0-6.131-5.309-11.215-11.963-11.215
			c-9.795,0-12.562,9.42-12.562,11.215H355.167z"/>
		<path fill="#454545" d="M366.304,34.641c0-2.542-0.374-7.925-0.374-9.72h4.486c0.074,2.542,0.149,5.383,0.299,6.056
			c2.243-4.037,5.832-6.953,10.991-6.953c0.897,0,1.72,0.149,2.617,0.374L383.8,28.81c-0.673-0.225-1.271-0.299-1.72-0.299
			c-7.776,0-11.29,5.383-11.29,12.112v18.842h-4.486V34.641z"/>
	</g>
	<g>
		<path fill="#DCE9C5" d="M450.193,23.874c0.002-2.34-0.729-4.734-2.216-6.754l-0.003-0.002c-2.229-3.029-5.71-4.658-9.195-4.65
			c-0.85-0.002-1.707,0.098-2.551,0.293c-4.934-3.33-10.724-5.068-16.549-5.064c-3.944-0.002-7.923,0.805-11.67,2.422l-3.501-4.715
			l-3.571,8.238l-0.539,1.242c-6.703,5.773-10.26,14.043-10.254,22.387c-0.002,2.838,0.427,5.693,1.26,8.469
			c-1.026,1.762-1.575,3.752-1.571,5.75c-0.002,2.342,0.732,4.736,2.22,6.756c2.223,3.021,5.69,4.65,9.172,4.65
			c0.01,0,0.016,0,0.025,0c1.021,0,2.051-0.146,3.056-0.428c4.675,2.85,10.026,4.342,15.415,4.336c0.003,0,0.007,0,0.011,0
			c3.735,0,7.503-0.717,11.076-2.168l3.614,4.963l4.325-9.756c6.869-5.787,10.511-14.162,10.503-22.609
			c0.002-2.391-0.301-4.797-0.891-7.154C449.568,28.211,450.197,26.047,450.193,23.874z"/>
		<g>
			<g>
				
					<radialGradient id="SVGID_1_" cx="363.416" cy="39.1211" r="59.6767" gradientTransform="matrix(0.9439 0 0 0.9439 75.2279 1.3705)" gradientUnits="userSpaceOnUse">
					<stop  offset="0" style="stop-color:#558B3E"/>
					<stop  offset="1" style="stop-color:#C4DE8F"/>
				</radialGradient>
				<path fill="url(#SVGID_1_)" d="M400.079,51.489c1.805-3.348,4.365-6.354,7.624-8.75l0,0c4.727-3.48,10.239-5.162,15.693-5.162
					l0,0c3.725,0,7.422,0.779,10.846,2.307l0,0l-1.171,2.631c-3.052-1.359-6.353-2.057-9.675-2.057l0,0
					c-4.866,0.002-9.762,1.494-13.986,4.602l0,0c-2.912,2.141-5.187,4.818-6.797,7.797l0,0l0.002,0.002L400.079,51.489
					L400.079,51.489z"/>
			</g>
			
				<radialGradient id="SVGID_2_" cx="363.416" cy="39.1206" r="59.6836" gradientTransform="matrix(0.9439 0 0 0.9439 75.2279 1.3705)" gradientUnits="userSpaceOnUse">
				<stop  offset="0" style="stop-color:#558B3E"/>
				<stop  offset="1" style="stop-color:#C4DE8F"/>
			</radialGradient>
			<polygon fill="url(#SVGID_2_)" points="412.443,38.487 418.256,39.448 414.518,43.999 			"/>
			<g>
				
					<radialGradient id="SVGID_3_" cx="419.6904" cy="40.0757" r="53.6717" gradientTransform="matrix(1.0495 0 0 1.0495 -22.2092 -3.7632)" gradientUnits="userSpaceOnUse">
					<stop  offset="0" style="stop-color:#558B3E"/>
					<stop  offset="1" style="stop-color:#C4DE8F"/>
				</radialGradient>
				<path fill="url(#SVGID_3_)" d="M400.068,51.69c-7.969-10.846-5.645-26.094,5.197-34.066l0,0
					c10.843-7.973,26.09-5.645,34.064,5.197l0,0c7.969,10.84,5.646,26.09-5.193,34.062l0,0
					C423.293,64.856,408.044,62.528,400.068,51.69L400.068,51.69z M402.649,49.792c6.939,9.404,20.159,11.422,29.589,4.512l0,0
					c9.403-6.938,11.418-20.158,4.512-29.586l0,0c-6.941-9.406-20.16-11.422-29.588-4.516l0,0
					C397.756,27.145,395.742,40.362,402.649,49.792L402.649,49.792z"/>
			</g>
			<g>
				<g>
					
						<radialGradient id="SVGID_4_" cx="363.4141" cy="39.1206" r="59.6776" gradientTransform="matrix(0.9439 0 0 0.9439 75.2279 1.3705)" gradientUnits="userSpaceOnUse">
						<stop  offset="0" style="stop-color:#558B3E"/>
						<stop  offset="1" style="stop-color:#C4DE8F"/>
					</radialGradient>
					<path fill="url(#SVGID_4_)" d="M397.284,48.768l0.058-1.439c0.354-8.969,4.652-17.723,12.449-23.455l0,0
						c5.455-4.01,11.814-5.949,18.105-5.949l0,0c2.346,0,4.684,0.268,6.965,0.801l0,0l1.398,0.326l-0.955,4.127l-2.809-0.652
						l0.301-1.285c-1.617-0.291-3.257-0.436-4.9-0.436l0,0c-5.701,0-11.452,1.752-16.398,5.391l0,0
						c-6.65,4.889-10.483,12.189-11.182,19.812l0,0l1.318,0.051v0.002l-0.117,2.875L397.284,48.768L397.284,48.768z"/>
				</g>
			</g>
			<g>
				
					<radialGradient id="SVGID_5_" cx="419.6904" cy="40.0767" r="53.6712" gradientTransform="matrix(1.0495 0 0 1.0495 -22.2092 -3.7632)" gradientUnits="userSpaceOnUse">
					<stop  offset="0" style="stop-color:#558B3E"/>
					<stop  offset="1" style="stop-color:#C4DE8F"/>
				</radialGradient>
				<path fill="url(#SVGID_5_)" d="M399.238,52.954l0.83-3.096c8.565,2.309,18.049,0.84,25.747-4.822l0,0
					c7.394-5.438,11.585-13.598,12.219-22.088l0,0l3.191,0.236c-0.696,9.379-5.34,18.424-13.513,24.434l0,0
					C419.203,53.874,408.698,55.5,399.238,52.954L399.238,52.954z M399.235,52.95c0.003,0.002,0.003,0.002,0.003,0.004l0,0l0,0
					L399.235,52.95L399.235,52.95z"/>
			</g>
			
				<radialGradient id="SVGID_6_" cx="363.4189" cy="39.1147" r="59.6686" gradientTransform="matrix(0.9439 0 0 0.9439 75.2279 1.3705)" gradientUnits="userSpaceOnUse">
				<stop  offset="0" style="stop-color:#558B3E"/>
				<stop  offset="1" style="stop-color:#C4DE8F"/>
			</radialGradient>
			<polygon fill="url(#SVGID_6_)" points="405.699,15.706 409.208,20.436 403.355,21.108 			"/>
			
				<radialGradient id="SVGID_7_" cx="363.4131" cy="39.1216" r="59.6747" gradientTransform="matrix(0.9439 0 0 0.9439 75.2279 1.3705)" gradientUnits="userSpaceOnUse">
				<stop  offset="0" style="stop-color:#558B3E"/>
				<stop  offset="1" style="stop-color:#C4DE8F"/>
			</radialGradient>
			<polygon fill="url(#SVGID_7_)" points="409.867,22 413.375,26.731 407.525,27.405 			"/>
			
				<radialGradient id="SVGID_8_" cx="363.4131" cy="39.1216" r="59.6767" gradientTransform="matrix(0.9439 0 0 0.9439 75.2279 1.3705)" gradientUnits="userSpaceOnUse">
				<stop  offset="0" style="stop-color:#558B3E"/>
				<stop  offset="1" style="stop-color:#C4DE8F"/>
			</radialGradient>
			<polygon fill="url(#SVGID_8_)" points="429.855,54.524 433.324,59.282 435.711,53.899 			"/>
			
				<radialGradient id="SVGID_9_" cx="363.416" cy="39.1216" r="59.6747" gradientTransform="matrix(0.9439 0 0 0.9439 75.2279 1.3705)" gradientUnits="userSpaceOnUse">
				<stop  offset="0" style="stop-color:#558B3E"/>
				<stop  offset="1" style="stop-color:#C4DE8F"/>
			</radialGradient>
			<polygon fill="url(#SVGID_9_)" points="414.837,48.717 416.854,54.25 420.638,49.737 			"/>
			
				<radialGradient id="SVGID_10_" cx="403.6914" cy="19.478" r="12.5331" gradientTransform="matrix(0.8738 0 0 0.8738 48.22 33.9556)" gradientUnits="userSpaceOnUse">
				<stop  offset="0" style="stop-color:#558B3E"/>
				<stop  offset="0.3134" style="stop-color:#588C3F"/>
				<stop  offset="0.4865" style="stop-color:#5F9042"/>
				<stop  offset="0.6255" style="stop-color:#6C9849"/>
				<stop  offset="0.7463" style="stop-color:#7DA454"/>
				<stop  offset="0.8553" style="stop-color:#93B467"/>
				<stop  offset="0.9543" style="stop-color:#B1CC7F"/>
				<stop  offset="1" style="stop-color:#C4DE8F"/>
			</radialGradient>
			<path fill="url(#SVGID_10_)" d="M406.26,47.797c2.038,2.77,1.443,6.664-1.326,8.703c-2.769,2.035-6.666,1.441-8.701-1.33
				c-2.037-2.766-1.443-6.662,1.326-8.701C400.33,44.434,404.224,45.028,406.26,47.797z"/>
			
				<radialGradient id="SVGID_11_" cx="447.2217" cy="-12.1802" r="17.3138" gradientTransform="matrix(0.8738 0 0 0.8738 48.22 33.956)" gradientUnits="userSpaceOnUse">
				<stop  offset="0" style="stop-color:#558B3E"/>
				<stop  offset="0.3134" style="stop-color:#588C3F"/>
				<stop  offset="0.4865" style="stop-color:#5F9042"/>
				<stop  offset="0.6255" style="stop-color:#6C9849"/>
				<stop  offset="0.7463" style="stop-color:#7DA454"/>
				<stop  offset="0.8553" style="stop-color:#93B467"/>
				<stop  offset="0.9543" style="stop-color:#B1CC7F"/>
				<stop  offset="1" style="stop-color:#C4DE8F"/>
			</radialGradient>
			<circle fill="url(#SVGID_11_)" cx="438.785" cy="23.88" r="6.223"/>
			
				<radialGradient id="SVGID_12_" cx="437.9873" cy="7.6064" r="14.526" gradientTransform="matrix(0.8738 0 0 0.8738 48.22 33.9556)" gradientUnits="userSpaceOnUse">
				<stop  offset="0" style="stop-color:#558B3E"/>
				<stop  offset="0.3134" style="stop-color:#588C3F"/>
				<stop  offset="0.4865" style="stop-color:#5F9042"/>
				<stop  offset="0.6255" style="stop-color:#6C9849"/>
				<stop  offset="0.7463" style="stop-color:#7DA454"/>
				<stop  offset="0.8553" style="stop-color:#93B467"/>
				<stop  offset="0.9543" style="stop-color:#B1CC7F"/>
				<stop  offset="1" style="stop-color:#C4DE8F"/>
			</radialGradient>
			<circle fill="url(#SVGID_12_)" cx="431.72" cy="40.951" r="6.223"/>
		</g>
	</g>
</g>
</svg>
