<?xml version="1.0" encoding="UTF-8"?><svg xmlns="http://www.w3.org/2000/svg" xmlns:xlink="http://www.w3.org/1999/xlink" fill-opacity="1" color-rendering="auto" color-interpolation="auto" text-rendering="auto" stroke="black" stroke-linecap="square" width="900" stroke-miterlimit="10" shape-rendering="auto" stroke-opacity="1" fill="black" stroke-dasharray="none" font-weight="normal" stroke-width="1" height="417" font-family="'Dialog'" font-style="normal" stroke-linejoin="miter" font-size="12px" stroke-dashoffset="0" image-rendering="auto">
  <!--Generated by ySVG 2.6-->
  <defs id="genericDefs"/>
  <g>
    <defs id="defs1">
      <linearGradient x1="0" gradientUnits="userSpaceOnUse" x2="150" y1="-291.5452" y2="-241.5452" id="linearGradient1" spreadMethod="reflect">
        <stop stop-opacity="1" stop-color="rgb(232,238,247)" offset="0%"/>
        <stop stop-opacity="1" stop-color="rgb(0,204,255)" offset="100%"/>
      </linearGradient>
      <linearGradient x1="735" gradientUnits="userSpaceOnUse" x2="855" y1="-396.5452" y2="-346.5452" id="linearGradient2" spreadMethod="reflect">
        <stop stop-opacity="1" stop-color="rgb(232,238,247)" offset="0%"/>
        <stop stop-opacity="1" stop-color="rgb(153,204,0)" offset="100%"/>
      </linearGradient>
      <linearGradient x1="735" gradientUnits="userSpaceOnUse" x2="855" y1="-60" y2="-10" id="linearGradient3" spreadMethod="reflect">
        <stop stop-opacity="1" stop-color="rgb(232,238,247)" offset="0%"/>
        <stop stop-opacity="1" stop-color="rgb(255,102,0)" offset="100%"/>
      </linearGradient>
      <linearGradient x1="180" gradientUnits="userSpaceOnUse" x2="330" y1="-304.0452" y2="-229.0452" id="linearGradient4" spreadMethod="reflect">
        <stop stop-opacity="1" stop-color="rgb(232,238,247)" offset="0%"/>
        <stop stop-opacity="1" stop-color="silver" offset="100%"/>
      </linearGradient>
      <linearGradient x1="360" gradientUnits="userSpaceOnUse" x2="510" y1="-356.5452" y2="-281.5452" id="linearGradient5" spreadMethod="reflect">
        <stop stop-opacity="1" stop-color="rgb(232,238,247)" offset="0%"/>
        <stop stop-opacity="1" stop-color="silver" offset="100%"/>
      </linearGradient>
      <linearGradient x1="540" gradientUnits="userSpaceOnUse" x2="690" y1="-304.0452" y2="-229.0452" id="linearGradient6" spreadMethod="reflect">
        <stop stop-opacity="1" stop-color="rgb(232,238,247)" offset="0%"/>
        <stop stop-opacity="1" stop-color="silver" offset="100%"/>
      </linearGradient>
      <linearGradient x1="720" gradientUnits="userSpaceOnUse" x2="870" y1="-187.4929" y2="-112.4929" id="linearGradient7" spreadMethod="reflect">
        <stop stop-opacity="1" stop-color="rgb(232,238,247)" offset="0%"/>
        <stop stop-opacity="1" stop-color="silver" offset="100%"/>
      </linearGradient>
      <linearGradient x1="195" gradientUnits="userSpaceOnUse" x2="315" y1="-174.9929" y2="-124.9929" id="linearGradient8" spreadMethod="reflect">
        <stop stop-opacity="1" stop-color="rgb(232,238,247)" offset="0%"/>
        <stop stop-opacity="1" stop-color="rgb(153,204,0)" offset="100%"/>
      </linearGradient>
      <clipPath clipPathUnits="userSpaceOnUse" id="clipPath1">
        <path d="M0 0 L900 0 L900 417 L0 417 L0 0 Z"/>
      </clipPath>
      <clipPath clipPathUnits="userSpaceOnUse" id="clipPath2">
        <path d="M-15 -412 L885 -412 L885 5 L-15 5 L-15 -412 Z"/>
      </clipPath>
    </defs>
    <g fill="white" text-rendering="geometricPrecision" shape-rendering="geometricPrecision" transform="translate(15,412)" stroke="white">
      <rect x="-15" width="900" height="417" y="-412" clip-path="url(#clipPath2)" stroke="none"/>
    </g>
    <g fill="url(#linearGradient1)" text-rendering="geometricPrecision" shape-rendering="geometricPrecision" transform="matrix(1,0,0,1,15,412)" stroke="url(#linearGradient1)">
      <ellipse rx="75" ry="25" clip-path="url(#clipPath2)" cx="75" cy="-266.5452" stroke="none"/>
    </g>
    <g text-rendering="geometricPrecision" stroke-miterlimit="1.45" shape-rendering="geometricPrecision" transform="matrix(1,0,0,1,15,412)" stroke-linecap="butt">
      <ellipse rx="75" fill="none" ry="25" clip-path="url(#clipPath2)" cx="75" cy="-266.5452"/>
      <text x="20.0771" y="-270.0612" clip-path="url(#clipPath2)" font-family="sans-serif" stroke="none" font-weight="bold" xml:space="preserve">What OptaPlanner</text>
      <text x="36.0552" y="-253.7171" clip-path="url(#clipPath2)" font-family="sans-serif" stroke="none" font-weight="bold" xml:space="preserve">should I use?</text>
    </g>
    <g fill="url(#linearGradient2)" text-rendering="geometricPrecision" shape-rendering="geometricPrecision" transform="matrix(1,0,0,1,15,412)" stroke="url(#linearGradient2)">
      <rect x="735" y="-396.5452" clip-path="url(#clipPath2)" width="120" rx="25" ry="25" height="50" stroke="none"/>
    </g>
    <g text-rendering="geometricPrecision" stroke-miterlimit="1.45" shape-rendering="geometricPrecision" transform="matrix(1,0,0,1,15,412)" stroke-linecap="butt">
      <rect x="735" y="-396.5452" clip-path="url(#clipPath2)" fill="none" width="120" rx="25" ry="25" height="50"/>
      <text x="767.8318" y="-375.0612" clip-path="url(#clipPath2)" font-family="sans-serif" stroke="none" font-weight="bold" xml:space="preserve">Switch to</text>
      <text x="752.0277" y="-358.7172" clip-path="url(#clipPath2)" font-family="sans-serif" stroke="none" font-weight="bold" xml:space="preserve">OptaPlanner 9</text>
    </g>
    <g fill="url(#linearGradient3)" text-rendering="geometricPrecision" shape-rendering="geometricPrecision" transform="matrix(1,0,0,1,15,412)" stroke="url(#linearGradient3)">
      <rect x="735" y="-60" clip-path="url(#clipPath2)" width="120" rx="25" ry="25" height="50" stroke="none"/>
    </g>
    <g text-rendering="geometricPrecision" stroke-miterlimit="1.45" shape-rendering="geometricPrecision" transform="matrix(1,0,0,1,15,412)" stroke-linecap="butt">
      <rect x="735" y="-60" clip-path="url(#clipPath2)" fill="none" width="120" rx="25" ry="25" height="50"/>
      <text x="773.0909" y="-38.516" clip-path="url(#clipPath2)" font-family="sans-serif" stroke="none" font-weight="bold" xml:space="preserve">Stay on</text>
      <text x="752.0277" y="-22.1719" clip-path="url(#clipPath2)" font-family="sans-serif" stroke="none" font-weight="bold" xml:space="preserve">OptaPlanner 8</text>
    </g>
    <g fill="url(#linearGradient4)" text-rendering="geometricPrecision" shape-rendering="geometricPrecision" transform="matrix(1,0,0,1,15,412)" stroke="url(#linearGradient4)">
      <path d="M255 -304.0452 L330 -266.5452 L255 -229.0452 L180 -266.5452 Z" stroke="none" clip-path="url(#clipPath2)"/>
    </g>
    <g text-rendering="geometricPrecision" stroke-miterlimit="1.45" shape-rendering="geometricPrecision" transform="matrix(1,0,0,1,15,412)" stroke-linecap="butt">
      <path fill="none" d="M255 -304.0452 L330 -266.5452 L255 -229.0452 L180 -266.5452 Z" clip-path="url(#clipPath2)"/>
      <text x="231.0238" xml:space="preserve" y="-270.0612" clip-path="url(#clipPath2)" font-family="sans-serif" stroke="none">Starting </text>
      <text x="219.2517" xml:space="preserve" y="-253.7171" clip-path="url(#clipPath2)" font-family="sans-serif" stroke="none">new project?</text>
    </g>
    <g fill="url(#linearGradient5)" text-rendering="geometricPrecision" shape-rendering="geometricPrecision" transform="matrix(1,0,0,1,15,412)" stroke="url(#linearGradient5)">
      <path d="M435 -356.5452 L510 -319.0452 L435 -281.5452 L360 -319.0452 Z" stroke="none" clip-path="url(#clipPath2)"/>
    </g>
    <g text-rendering="geometricPrecision" stroke-miterlimit="1.45" shape-rendering="geometricPrecision" transform="matrix(1,0,0,1,15,412)" stroke-linecap="butt">
      <path fill="none" d="M435 -356.5452 L510 -319.0452 L435 -281.5452 L360 -319.0452 Z" clip-path="url(#clipPath2)"/>
      <text x="397.2117" xml:space="preserve" y="-322.5612" clip-path="url(#clipPath2)" font-family="sans-serif" stroke="none">Use Quarkus </text>
      <text x="391.4337" xml:space="preserve" y="-306.2172" clip-path="url(#clipPath2)" font-family="sans-serif" stroke="none">or Spring Boot?</text>
    </g>
    <g fill="url(#linearGradient6)" text-rendering="geometricPrecision" shape-rendering="geometricPrecision" transform="matrix(1,0,0,1,15,412)" stroke="url(#linearGradient6)">
      <path d="M615 -304.0452 L690 -266.5452 L615 -229.0452 L540 -266.5452 Z" stroke="none" clip-path="url(#clipPath2)"/>
    </g>
    <g text-rendering="geometricPrecision" stroke-miterlimit="1.45" shape-rendering="geometricPrecision" transform="matrix(1,0,0,1,15,412)" stroke-linecap="butt">
      <path fill="none" d="M615 -304.0452 L690 -266.5452 L615 -229.0452 L540 -266.5452 Z" clip-path="url(#clipPath2)"/>
      <text x="581.8198" xml:space="preserve" y="-270.0612" clip-path="url(#clipPath2)" font-family="sans-serif" stroke="none">Use javax.* </text>
      <text x="585.9418" xml:space="preserve" y="-253.7171" clip-path="url(#clipPath2)" font-family="sans-serif" stroke="none">packages?</text>
    </g>
    <g fill="url(#linearGradient7)" text-rendering="geometricPrecision" shape-rendering="geometricPrecision" transform="matrix(1,0,0,1,15,412)" stroke="url(#linearGradient7)">
      <path d="M795 -187.4929 L870 -149.9929 L795 -112.4929 L720 -149.9929 Z" stroke="none" clip-path="url(#clipPath2)"/>
    </g>
    <g text-rendering="geometricPrecision" stroke-miterlimit="1.45" shape-rendering="geometricPrecision" transform="matrix(1,0,0,1,15,412)" stroke-linecap="butt">
      <path fill="none" d="M795 -187.4929 L870 -149.9929 L795 -112.4929 L720 -149.9929 Z" clip-path="url(#clipPath2)"/>
      <text x="744.1136" xml:space="preserve" y="-145.3368" clip-path="url(#clipPath2)" font-family="sans-serif" stroke="none">Can migrate now?</text>
    </g>
    <g fill="url(#linearGradient8)" text-rendering="geometricPrecision" shape-rendering="geometricPrecision" transform="matrix(1,0,0,1,15,412)" stroke="url(#linearGradient8)">
      <rect x="195" y="-174.9929" clip-path="url(#clipPath2)" width="120" rx="25" ry="25" height="50" stroke="none"/>
    </g>
    <g text-rendering="geometricPrecision" stroke-miterlimit="1.45" shape-rendering="geometricPrecision" transform="matrix(1,0,0,1,15,412)" stroke-linecap="butt">
      <rect x="195" y="-174.9929" clip-path="url(#clipPath2)" fill="none" width="120" rx="25" ry="25" height="50"/>
      <text x="226.1443" y="-153.5089" clip-path="url(#clipPath2)" font-family="sans-serif" stroke="none" font-weight="bold" xml:space="preserve">Start with</text>
      <text x="212.0277" y="-137.1648" clip-path="url(#clipPath2)" font-family="sans-serif" stroke="none" font-weight="bold" xml:space="preserve">OptaPlanner 9</text>
    </g>
    <g text-rendering="geometricPrecision" stroke-miterlimit="1.45" shape-rendering="geometricPrecision" transform="matrix(1,0,0,1,15,412)" stroke-linecap="butt">
      <path fill="none" d="M150 -266.5452 L172 -266.5452" clip-path="url(#clipPath2)"/>
    </g>
    <g text-rendering="geometricPrecision" stroke-miterlimit="1.45" shape-rendering="geometricPrecision" transform="matrix(1,0,0,1,15,412)" stroke-linecap="butt">
      <path d="M180 -266.5452 L168 -271.5452 L171 -266.5452 L168 -261.5452 Z" stroke="none" clip-path="url(#clipPath2)"/>
      <path fill="none" d="M255 -304.0452 L255 -319.0452 L352 -319.0452" clip-path="url(#clipPath2)"/>
      <path d="M360 -319.0452 L348 -324.0452 L351 -319.0452 L348 -314.0452 Z" clip-path="url(#clipPath2)" stroke="none"/>
      <text x="234.6199" xml:space="preserve" y="-311.4517" clip-path="url(#clipPath2)" font-family="sans-serif" stroke="none">No</text>
      <path fill="none" d="M435 -356.5452 L435 -371.5452 L726.9634 -371.5452" clip-path="url(#clipPath2)"/>
      <path d="M734.9634 -371.5452 L722.9634 -376.5452 L725.9634 -371.5452 L722.9634 -366.5452 Z" clip-path="url(#clipPath2)" stroke="none"/>
      <text x="358.2555" xml:space="preserve" y="-363.9517" clip-path="url(#clipPath2)" font-family="sans-serif" stroke="none">What is that?</text>
      <path fill="none" d="M435 -281.5159 L435 -266.5452 L532 -266.5452" clip-path="url(#clipPath2)"/>
      <path d="M540 -266.5452 L528 -271.5452 L531 -266.5452 L528 -261.5452 Z" clip-path="url(#clipPath2)" stroke="none"/>
      <text x="411.6918" xml:space="preserve" y="-264.8267" clip-path="url(#clipPath2)" font-family="sans-serif" stroke="none">Yes</text>
      <path fill="none" d="M615 -304.0452 L615 -354.8786 L733.3438 -354.8786" clip-path="url(#clipPath2)"/>
      <path d="M741.3438 -354.8786 L729.3438 -359.8786 L732.3438 -354.8786 L729.3438 -349.8786 Z" clip-path="url(#clipPath2)" stroke="none"/>
      <text x="619" xml:space="preserve" y="-319.6862" clip-path="url(#clipPath2)" font-family="sans-serif" stroke="none">What is that?</text>
      <path fill="none" d="M615 -229.0452 L615 -149.9929 L712 -149.9929" clip-path="url(#clipPath2)"/>
      <path d="M720 -149.9929 L708 -154.9929 L711 -149.9929 L708 -144.9929 Z" clip-path="url(#clipPath2)" stroke="none"/>
      <text x="591.6918" xml:space="preserve" y="-204.0921" clip-path="url(#clipPath2)" font-family="sans-serif" stroke="none">Yes</text>
      <path fill="none" d="M795 -187.5317 L795 -338.5452" clip-path="url(#clipPath2)"/>
      <path d="M795 -346.5452 L790 -334.5452 L795 -337.5452 L800 -334.5452 Z" clip-path="url(#clipPath2)" stroke="none"/>
      <text x="771.6918" xml:space="preserve" y="-203.1339" clip-path="url(#clipPath2)" font-family="sans-serif" stroke="none">Yes</text>
      <path fill="none" d="M795 -112.4929 L795 -68.0256" clip-path="url(#clipPath2)"/>
      <path d="M795 -60.0256 L800 -72.0256 L795 -69.0256 L790 -72.0256 Z" clip-path="url(#clipPath2)" stroke="none"/>
      <text x="774.6199" xml:space="preserve" y="-87.5398" clip-path="url(#clipPath2)" font-family="sans-serif" stroke="none">No</text>
      <path fill="none" d="M255 -229.0452 L255 -183.0193" clip-path="url(#clipPath2)"/>
      <path d="M255 -175.0193 L260 -187.0193 L255 -184.0193 L250 -187.0193 Z" clip-path="url(#clipPath2)" stroke="none"/>
      <text x="231.6918" xml:space="preserve" y="-204.0921" clip-path="url(#clipPath2)" font-family="sans-serif" stroke="none">Yes</text>
    </g>
  </g>
</svg>
